<?xml version="1.0" encoding="utf-8"?><svg viewBox="0 0 640 512" xmlns="http://www.w3.org/2000/svg" xmlns:xlink="http://www.w3.org/1999/xlink"><style>:root>svg{display:none}:root>svg:target{display:block}</style><svg aria-hidden="true" data-prefix="fab" data-icon="apple" class="asvg-inline--fa afa-apple afa-w-12" viewBox="0 0 384 512" id="apple" xmlns="http://www.w3.org/2000/svg"><path fill="#fff" d="M318.7 268.7c-.2-36.7 16.4-64.4 50-84.8-18.8-26.9-47.2-41.7-84.7-44.6-35.5-2.8-74.3 20.7-88.5 20.7-15 0-49.4-19.7-76.4-19.7C63.3 141.2 4 184.8 4 273.5q0 39.3 14.4 81.2c12.8 36.7 59 126.7 107.2 125.2 25.2-.6 43-17.9 75.8-17.9 31.8 0 48.3 17.9 76.4 17.9 48.6-.7 90.4-82.5 102.6-119.3-65.2-30.7-61.7-90-61.7-91.9zm-56.6-164.2c27.3-32.4 24.8-61.9 24-72.5-24.1 1.4-52 16.4-67.9 34.9-17.5 19.8-27.8 44.3-25.6 71.9 26.1 2 49.9-11.4 69.5-34.3z"/></svg><svg aria-hidden="true" data-prefix="fas" data-icon="arrow-right" class="bsvg-inline--fa bfa-arrow-right bfa-w-14" viewBox="0 0 448 512" id="arrow-right" xmlns="http://www.w3.org/2000/svg"><path fill="#fff" d="M190.5 66.9l22.2-22.2c9.4-9.4 24.6-9.4 33.9 0L441 239c9.4 9.4 9.4 24.6 0 33.9L246.6 467.3c-9.4 9.4-24.6 9.4-33.9 0l-22.2-22.2c-9.5-9.5-9.3-25 .4-34.3L311.4 296H24c-13.3 0-24-10.7-24-24v-32c0-13.3 10.7-24 24-24h287.4L190.9 101.2c-9.8-9.3-10-24.8-.4-34.3z"/></svg><svg aria-hidden="true" data-prefix="fas" data-icon="check" class="csvg-inline--fa cfa-check cfa-w-16" viewBox="0 0 512 512" id="check" xmlns="http://www.w3.org/2000/svg"><path fill="#6fc754" d="M173.898 439.404l-166.4-166.4c-9.997-9.997-9.997-26.206 0-36.204l36.203-36.204c9.997-9.998 26.207-9.998 36.204 0L192 312.69 432.095 72.596c9.997-9.997 26.207-9.997 36.204 0l36.203 36.204c9.997 9.997 9.997 26.206 0 36.204l-294.4 294.401c-9.998 9.997-26.207 9.997-36.204-.001z"/></svg><svg aria-hidden="true" data-prefix="fab" data-icon="facebook-f" class="dsvg-inline--fa dfa-facebook-f dfa-w-10" viewBox="0 0 320 512" id="facebook" xmlns="http://www.w3.org/2000/svg"><path d="M279.14 288l14.22-92.66h-88.91v-60.13c0-25.35 12.42-50.06 52.24-50.06h40.42V6.26S260.43 0 225.36 0c-73.22 0-121.08 44.38-121.08 124.72v70.62H22.89V288h81.39v224h100.17V288z"/></svg><svg viewBox="0 0 108 36" id="footer-logo" xmlns="http://www.w3.org/2000/svg"><path fill="#26272D" fill-rule="evenodd" d="M108 9.522s-.876 2.456-2.41 3.945c-.841.817-4.664 1.541-7.012 1.744l-1.013 3.223c1.534-2.34 5.485-2.134 5.348 0-.219 3.405-2.499 4.256-3.814 4.894-1.481.72-2.251.578-2.76.638.088.022 1.643.046 2.191.426 1.534 1.064.656 2.34 1.534 2.34.438 0 .664-.636.808-1.063.288-.852.945-.852.945-.852s1.028-.139 1.343-.08c.86.164.451.764.301 1.19-.066.186-.486 1.011-.676 1.249-.749.939-2.301 1.07-3.248 1.046-1.453-.037-2.103-.851-2.103-2.128 0-1.504-1.753-1.489-1.753-1.489L94.6 27.583s-.138.661-.576.661c-.603 0-.902-.039-1.998-.039-.657 0-.494-.622-.494-.622l1.2-3.353s-2.173 4.014-4.518 3.988c-.726-.009-1.57-.017-2.191-.807-.654-.831-.446-1.955-.08-3.038.591-1.748 1.38-3.691 1.19-3.598-1.386.674-2.323.076-2.509-.021-.624.841-1.229 1.237-2.093 1.595-1.416 6.715-6.843 6.609-8.491 4.809-.997-1.088-1.146-2.736-.668-4.592-.238.182-.7.357-1.139.364-.44.007-.856-.153-.895-.16-.237.949-.61 2.172-1.078 2.899-1.974 3.067-4.602 2.765-5.663 1.914-.609-.488-1.084-1.039-1.522-1.891a4.89 4.89 0 01-1.753 1.916c-1.27.811-4.239 1.177-6.055-.976-1.417-1.679-1.923-4.306-.913-7.947.877-3.158 2.669-5.187 3.552-6.02 2.073-1.958 4.702-2.857 6.629-2.768 3.77.174 4.647 2.095 4.722 3.486.411-.293.903-.599 1.488-.882 3.068-1.49 6.071-.945 10.081-.426 5.543.718 9.899.693 15.286.018.191-.549.371-1.04.371-1.04s1.479-4.762 2.269-7.284c.411-1.309.826-2.044 1.45-2.431.993-.615 2.6-.466 3.188.349.475.658 1.039 2.076-.561 5.007-.735 1.345-2.139 3.81-2.621 4.359l-.346.498C106.15 10.521 108 9.522 108 9.522zM84.644 19.587c.448-.283.764-1.036.614-1.453-.194-.536-.885-.533-1.1-.106-.502.997.516 1.537.486 1.559zm-8.467 5.656c.439 1.702 3.507 1.702 4.656-2.341.01-.068.043-.205.056-.273-.036 0-2.959-.152-2.739-1.642.098-.666 1.314-.425 2.41-.425.265 0 .504-.003.723-.009.039-.667-.109-1.31-.723-1.906-.657-.638-2.464-.425-3.725 2.553-.7 1.654-.902 3.096-.658 4.043zM63.952 21.65s1.363-1.153 1.315-3.192c-.018-.751-.768-1.236-1.315-.213-.612 1.145 0 3.405 0 3.405zm16.874-7.235c-6.363-1.235-8.973-1.075-10.957.852-1.973 1.915-2.532.849-2.471.579.14-.628.248-1.492.185-2.012-.139-1.146-.833-1.937-2.391-1.972-1.972-.043-4.209.992-5.67 4.019-1.461 3.027-2.123 7.173-1.049 8.535 1.362 1.726 3.861.092 3.911-.933-.16-.472-1.798-5.455.889-6.898 1.326-.712 5.281.384.898 6.554-.219 1.49 3.068 4.894 5.213 1.04.438-.788.56-1.771.615-2.674-.773-1.028-1.255-2.267-.853-3.256.33-.81 1.235-.888 1.593-.763.909.32 1.093 1.496.915 3.542.195.298.465.354.798.385 1.054.099 1.406-.442 1.519-.556 1.143-2.507 3.448-3.92 5.204-3.908 2.764.02 3.456 1.759 3.537 3.494.706-.048 1.034-.173 1.163-.314-.425-.373-.662-1.082-.713-1.357-.15-.824.179-1.389.695-1.649.474-.239 1.418-.345 1.926.47.682 1.095-.476 2.4-.476 2.4.184.18.723.322 1.389-.282.654-.593 1.387-1.724 1.534-1.915.658-.851 3.052-.583 3.052-.583s-.863 2.669-1.429 4.413c-.363 1.117-1.379 3.725-1.096 4.255.514.963 2.066-.72 2.066-.72 1.557-1.508 3.121-5.501 3.121-5.501s.722-2.41 1.322-4.383c-4.257.025-9.817.036-14.44-.862zm15.224 8.487s2.522.385 3.926-2.34c1.753-3.404-1.973-2.553-3.068-.213l-.858 2.553zm5.148-14.619c1.461-2.235 2.009-4.628 1.754-5.319-.256-.691-.828-.043-1.067.712-.548 1.734-1.87 5.908-2.362 7.352.201-.303 1.151-1.942 1.675-2.745zm-48.384 5.158c-.612.594-2.874 1.184-5.201 1.549-1.348 4.049-2.091 6.416-2.315 7.167-.383 1.282-1.689 4.491-.155 4.502.865.006 1.009-1.504 1.315-1.702.658-.425 2.297-.638 2.516 0 .077.225-.325 1.064-.325 1.064s-.876 2.34-4.324 2.318c-.505-.004-3.945-.384-2.411-4.924.226-.668 1.231-4.22 2.389-8.077-.252.011-.495.018-.721.018l-3.249.002c.275 2.45.418 2.903.369 5.587-.026 1.42-.348 8.72-2.027 11.794-1.412 2.586-2.778 3.012-3.684 3.204-.865.183-2.686-.017-3.371-1.31-.856-1.615.055-4.555.055-4.555l1.974-5.936c-1.053 2.029-2.618 4.138-4.534 4.008-1.979-.134-2.027-1.653-2.027-1.653s-1.142 1.751-3.416 1.653c-2.889-.126-3.094-2.1-3.094-2.1s-2.115 2.149-3.832 2.1c-.727-.021-1.571-.017-2.192-.806-.653-.832-.445-1.956-.079-3.038.591-1.749.896-2.69 1.131-3.575-.095.097-.778 1.243-2.23 1.376-.324.029-.723.037-.998-.006-.7 3.011-2.077 4.594-3.11 5.275-2.294 1.514-6.009 1.3-7.826-.853-1.416-1.68-1.923-4.307-.912-7.947a13.63 13.63 0 013.552-6.021c2.273-2.243 4.438-2.787 6.656-2.518 1.413.171 3.963 1.173 4.212 3.593.449-.34 1.014-.705 1.704-1.04 3.068-1.49 6.29-.732 10.3-.213 3.86.5 7.067.567 10.461.317.196-.563.383-1.076.383-1.076s1.48-4.762 2.27-7.284c.411-1.309.826-2.043 1.45-2.43.993-.616 2.599-.466 3.188.349.475.658.9 2.439-.561 5.006-.759 1.333-2.139 3.81-2.621 4.359l-.355.692c1.256-.159 2.568-.351 3.974-.571l.276-.044c1.09-3.469 2.143-6.515 2.679-7.165.439-.532 1.691-1.204 2.524-1.613.458-.226.657.124.657.124l-2.448 8.062c4.298-.814 6.393-1.492 6.393-1.492s-.876 2.341-2.41 3.83zm-29.543 11.37c.109 1.53 1.5 1.606 2.319 1.085.514-.327 1.215-1.233 1.58-2.467.454-1.533.78-2.93.694-3.586 0 0 .228-1.349-1.014-1.514-.896-.118-1.735.825-2.548 2.639-.84 1.875-1.082 3.137-1.031 3.843zm-11.557-3.883s.488-1.471-.329-2.306c-.337-.344-1.33-.322-1.15.727.219 1.277 1.26 1.579 1.479 1.579zm16.117-6.21c-6.035-.8-10.533-1.292-12.272.638-1.147 1.272-1.89 1.034-2.149.773-.087-.089-.042-.285-.042-.285l.074-.31c.443-2.16-1.283-3.46-3.164-3.038-1.586.355-3 1.343-4.461 4.369-1.462 3.027-1.703 6.601-.749 7.967 1.229 1.762 3.312 1.896 4.793.099.877-1.064 1.343-2.097 1.524-2.957-.705-.154-1.735-1.029-2.008-1.933-.273-.899-.128-1.791.529-2.216.516-.334 1.935-.526 2.52.815.512 1.171.099 2.391.099 2.391.142.111 1.119.237 1.818-.347.945-.79 1.614-2.769 2.622-3.324.619-.342 2.849-.215 2.849-.215s-.968 3.208-1.534 4.951c-.363 1.117-1.199 3.296-.767 3.735 1.004 1.019 2.754-.876 2.754-.876s-.064-3.401 2.821-6.132c1.2-1.136 2.447-1.761 3.981-1.678 1.534.083 1.525 1.316 1.525 1.316s.589-.898.877-1.101c.62-.439 2.63-.215 2.63-.215s-1.764 5.534-2.076 6.461c-.186.553-.775 2.465.213 2.455 1.818-.019 3.36-2.561 4.347-4.735l1.989-5.98c-3.366-.036-5.251-.166-8.743-.628zm11.615 1.365l-4.88 15.077s-.371 1.257-.17 1.807c.154.421.445.608 1.065.364.669-.261 1.565-.881 2.647-3.528 1.06-2.591 2.079-8.679 1.338-13.72zm3.068-7.235c1.461-2.235 2.009-4.628 1.753-5.319-.255-.69-.827-.042-1.066.713-.548 1.734-1.87 5.907-2.362 7.351.201-.303 1.151-1.942 1.675-2.745z"/></svg><svg aria-hidden="true" data-prefix="fab" data-icon="google-plus-g" class="fsvg-inline--fa ffa-google-plus-g ffa-w-20" viewBox="0 0 640 512" id="google-plus" xmlns="http://www.w3.org/2000/svg"><path d="M386.061 228.496c1.834 9.692 3.143 19.384 3.143 31.956C389.204 370.205 315.599 448 204.8 448c-106.084 0-192-85.915-192-192s85.916-192 192-192c51.864 0 95.083 18.859 128.611 50.292l-52.126 50.03c-14.145-13.621-39.028-29.599-76.485-29.599-65.484 0-118.92 54.221-118.92 121.277 0 67.056 53.436 121.277 118.92 121.277 75.961 0 104.513-54.745 108.965-82.773H204.8v-66.009h181.261zm185.406 6.437V179.2h-56.001v55.733h-55.733v56.001h55.733v55.733h56.001v-55.733H627.2v-56.001h-55.733z"/></svg><svg viewBox="0 0 139.282 11.906" id="headerlogo" xmlns="http://www.w3.org/2000/svg"><path class="gcls-1" d="M10.303 11.613V.285H7.644l.064 7.392H7.66L3.116.285h-3.12v11.328h2.656l-.064-7.408h.056l4.56 7.408h3.1zm10.24 0V9.278h-5.264V6.926h4.7V4.734h-4.7V2.59h4.976V.29h-7.611v11.323h7.9zM37.583.285h-2.848l-1.824 7.536h-.048L30.831.285h-2.848l-2.016 7.536h-.048L24.127.285h-2.944l3.216 11.328h2.72l2.24-7.664h.048l2.24 7.664h2.7zm1.376 11.328h1.585V6.637h1.792a6.973 6.973 0 001.64-.184 3.868 3.868 0 001.312-.568 2.673 2.673 0 00.864-.992 3.152 3.152 0 00.312-1.456 3.228 3.228 0 00-.288-1.424 2.589 2.589 0 00-.816-.976 3.61 3.61 0 00-1.28-.568 7.015 7.015 0 00-1.664-.184H38.96v11.328zm1.584-9.984h1.712a5.772 5.772 0 011.04.088 2.327 2.327 0 01.824.3 1.611 1.611 0 01.544.56 1.684 1.684 0 01.2.856 1.782 1.782 0 01-.192.864 1.5 1.5 0 01-.544.568 2.646 2.646 0 01-.84.32 5.086 5.086 0 01-1.064.1h-1.679V1.63zm9.519 4.944h1.7l2.88 5.04h1.92l-3.168-5.2a3.571 3.571 0 001.984-.976 2.727 2.727 0 00.768-2.016 3.07 3.07 0 00-.32-1.464 2.632 2.632 0 00-.872-.968 3.849 3.849 0 00-1.288-.536 6.952 6.952 0 00-1.552-.168h-3.632v11.328h1.584V6.574zm0-4.944h1.936a5.22 5.22 0 01.976.088 2.406 2.406 0 01.808.3 1.594 1.594 0 01.552.552 1.644 1.644 0 01-.568 2.272 2.632 2.632 0 01-.84.312 5.315 5.315 0 01-1.04.1h-1.824V1.63zm19.208 1.88a5.527 5.527 0 00-1.256-1.872 5.659 5.659 0 00-1.9-1.208 6.863 6.863 0 00-4.792 0 5.693 5.693 0 00-1.9 1.208 5.451 5.451 0 00-1.248 1.872 6.739 6.739 0 000 4.832 5.55 5.55 0 003.144 3.12 6.742 6.742 0 004.792 0 5.63 5.63 0 001.9-1.232 5.7 5.7 0 001.256-1.888 6.629 6.629 0 00.004-4.832zm-1.56 4.2a4.316 4.316 0 01-.864 1.448 3.971 3.971 0 01-1.36.968 4.363 4.363 0 01-1.776.352 4.257 4.257 0 01-1.76-.352 4.034 4.034 0 01-1.344-.968 4.349 4.349 0 01-.864-1.448 5.154 5.154 0 01-.3-1.777 5.038 5.038 0 01.3-1.752 4.535 4.535 0 01.856-1.448 3.955 3.955 0 011.344-.983 4.557 4.557 0 013.552 0 4.036 4.036 0 011.352.983 4.429 4.429 0 01.864 1.448 5.015 5.015 0 01.3 1.752 5.13 5.13 0 01-.3 1.778zM72.046.284h-1.76l4.416 11.328h1.472L80.622.284H78.91l-3.408 9.28h-.048zm11.5 0h-1.584v11.329h1.584V.285zm2.752 11.328h3.888a7.173 7.173 0 002.176-.344 6.106 6.106 0 001.968-1.04 5.247 5.247 0 001.424-1.76 5.464 5.464 0 00.544-2.52 5.634 5.634 0 00-.544-2.577 5.153 5.153 0 00-1.424-1.76A5.832 5.832 0 0092.362.603a7.671 7.671 0 00-2.176-.32h-3.888v11.33zm1.584-9.952h1.984a6.164 6.164 0 011.9.28 4.334 4.334 0 011.5.816 3.631 3.631 0 01.984 1.336 4.566 4.566 0 01.352 1.856 4.439 4.439 0 01-.352 1.808 3.7 3.7 0 01-.984 1.344 4.364 4.364 0 01-1.5.832 6 6 0 01-1.9.288h-1.984V1.66zm12.176 4.769h5.344v-1.36h-5.344V1.678h5.68V.285h-7.264v11.328h7.5v-1.408h-5.92V6.43zm10.1-6.145h-2.064v11.329h1.584V2.365h.032l5.984 9.248h2V.285h-1.584v9.059h-.032zm18.736 8.7a3.361 3.361 0 01-1.3 1.12 3.906 3.906 0 01-1.744.385 4.3 4.3 0 01-1.768-.353 3.905 3.905 0 01-1.344-.968 4.3 4.3 0 01-.848-1.448 5.292 5.292 0 01-.3-1.792 5.015 5.015 0 01.3-1.752 4.429 4.429 0 01.864-1.448 4.036 4.036 0 011.352-.983 4.261 4.261 0 011.784-.36 3.652 3.652 0 011.64.376 3.122 3.122 0 011.176.952l1.248-.961a3.61 3.61 0 00-.768-.76 4.732 4.732 0 00-.992-.552 5.831 5.831 0 00-1.136-.336 6.307 6.307 0 00-1.168-.112 6.525 6.525 0 00-2.4.432 5.744 5.744 0 00-1.912 1.208 5.475 5.475 0 00-1.264 1.872 6.684 6.684 0 00-.008 4.832 5.66 5.66 0 001.24 1.888 5.561 5.561 0 001.888 1.232 6.353 6.353 0 002.392.44 5.445 5.445 0 002.576-.568 5.093 5.093 0 001.744-1.48zm4.464-2.56h5.344v-1.36h-5.344V1.678h5.68V.285h-7.264v11.328h7.5v-1.408h-5.92V6.43z"/></svg><svg aria-hidden="true" data-prefix="fab" data-icon="linkedin-in" class="hsvg-inline--fa hfa-linkedin-in hfa-w-14" viewBox="0 0 448 512" id="linkedin" xmlns="http://www.w3.org/2000/svg"><path d="M100.28 448H7.4V148.9h92.88zM53.79 108.1C24.09 108.1 0 83.5 0 53.8a53.79 53.79 0 01107.58 0c0 29.7-24.1 54.3-53.79 54.3zM447.9 448h-92.68V302.4c0-34.7-.7-79.2-48.29-79.2-48.29 0-55.69 37.7-55.69 76.7V448h-92.78V148.9h89.08v40.8h1.3c12.4-23.5 42.69-48.3 87.88-48.3 94 0 111.28 61.9 111.28 142.3V448z"/></svg><svg viewBox="0 0 443.52 443.52" id="next" xmlns="http://www.w3.org/2000/svg"><path d="M336.226 209.591l-204.8-204.8c-6.78-6.548-17.584-6.36-24.132.42-6.388 6.614-6.388 17.099 0 23.712l192.734 192.734-192.734 192.734c-6.663 6.664-6.663 17.468 0 24.132 6.665 6.663 17.468 6.663 24.132 0l204.8-204.8c6.663-6.665 6.663-17.468 0-24.132z"/></svg><svg aria-hidden="true" data-prefix="fab" data-icon="pinterest-p" class="jsvg-inline--fa jfa-pinterest-p jfa-w-12" viewBox="0 0 384 512" id="pinterest" xmlns="http://www.w3.org/2000/svg"><path d="M204 6.5C101.4 6.5 0 74.9 0 185.6 0 256 39.6 296 63.6 296c9.9 0 15.6-27.6 15.6-35.4 0-9.3-23.7-29.1-23.7-67.8 0-80.4 61.2-137.4 140.4-137.4 68.1 0 118.5 38.7 118.5 109.8 0 53.1-21.3 152.7-90.3 152.7-24.9 0-46.2-18-46.2-43.8 0-37.8 26.4-74.4 26.4-113.4 0-66.2-93.9-54.2-93.9 25.8 0 16.8 2.1 35.4 9.6 50.7-13.8 59.4-42 147.9-42 209.1 0 18.9 2.7 37.5 4.5 56.4 3.4 3.8 1.7 3.4 6.9 1.5 50.4-69 48.6-82.5 71.4-172.8 12.3 23.4 44.1 36 69.3 36 106.2 0 153.9-103.5 153.9-196.8C384 71.3 298.2 6.5 204 6.5z"/></svg><svg viewBox="0 0 24 23" id="star" xmlns="http://www.w3.org/2000/svg"><path fill="#F2BC3B" fill-rule="evenodd" d="M14.871 6.871c.204.63.792 1.057 1.454 1.057h5.988c1.041 0 1.474 1.332.632 1.944l-4.845 3.52a1.53 1.53 0 00-.555 1.71l1.85 5.694c.322.99-.811 1.816-1.654 1.202l-4.844-3.519a1.528 1.528 0 00-1.798 0l-4.844 3.519c-.842.614-1.976-.212-1.654-1.202l1.85-5.694a1.529 1.529 0 00-.556-1.71l-4.844-3.52c-.842-.612-.409-1.944.632-1.944h5.988a1.53 1.53 0 001.454-1.057l1.851-5.694c.321-.991 1.723-.991 2.044 0l1.851 5.694z"/></svg><svg aria-hidden="true" data-prefix="fab" data-icon="tumblr" class="lsvg-inline--fa lfa-tumblr lfa-w-10" viewBox="0 0 320 512" id="tumblr" xmlns="http://www.w3.org/2000/svg"><path d="M309.8 480.3c-13.6 14.5-50 31.7-97.4 31.7-120.8 0-147-88.8-147-140.6v-144H17.9c-5.5 0-10-4.5-10-10v-68c0-7.2 4.5-13.6 11.3-16 62-21.8 81.5-76 84.3-117.1.8-11 6.5-16.3 16.1-16.3h70.9c5.5 0 10 4.5 10 10v115.2h83c5.5 0 10 4.4 10 9.9v81.7c0 5.5-4.5 10-10 10h-83.4V360c0 34.2 23.7 53.6 68 35.8 4.8-1.9 9-3.2 12.7-2.2 3.5.9 5.8 3.4 7.4 7.9l22 64.3c1.8 5 3.3 10.6-.4 14.5z"/></svg><svg aria-hidden="true" data-prefix="fab" data-icon="twitter" class="msvg-inline--fa mfa-twitter mfa-w-16" viewBox="0 0 512 512" id="twitter" xmlns="http://www.w3.org/2000/svg"><path d="M459.37 151.716c.325 4.548.325 9.097.325 13.645 0 138.72-105.583 298.558-298.558 298.558-59.452 0-114.68-17.219-161.137-47.106 8.447.974 16.568 1.299 25.34 1.299 49.055 0 94.213-16.568 130.274-44.832-46.132-.975-84.792-31.188-98.112-72.772 6.498.974 12.995 1.624 19.818 1.624 9.421 0 18.843-1.3 27.614-3.573-48.081-9.747-84.143-51.98-84.143-102.985v-1.299c13.969 7.797 30.214 12.67 47.431 13.319-28.264-18.843-46.781-51.005-46.781-87.391 0-19.492 5.197-37.36 14.294-52.954 51.655 63.675 129.3 105.258 216.365 109.807-1.624-7.797-2.599-15.918-2.599-24.04 0-57.828 46.782-104.934 104.934-104.934 30.213 0 57.502 12.67 76.67 33.137 23.715-4.548 46.456-13.32 66.599-25.34-7.798 24.366-24.366 44.833-46.132 57.827 21.117-2.273 41.584-8.122 60.426-16.243-14.292 20.791-32.161 39.308-52.628 54.253z"/></svg></svg>